<svg id="Layer_1" data-name="Layer 1" xmlns="http://www.w3.org/2000/svg" xmlns:xlink="http://www.w3.org/1999/xlink" viewBox="0 0 582.68 89.76">
  <defs>
    <style>
      .cls-1, .cls-2 {
        fill: #d8d8d8;
      }

      .cls-1 {
        stroke: #b7b3b3;
        stroke-miterlimit: 10;
        stroke-width: 3px;
      }

      .cls-3 {
        fill: url(#linear-gradient);
      }

      .cls-4 {
        fill: url(#linear-gradient-2);
      }

      .cls-5 {
        fill: url(#linear-gradient-3);
      }

      .cls-6 {
        fill: url(#linear-gradient-4);
      }
    </style>
    <linearGradient id="linear-gradient" y1="52.92" x2="17.29" y2="52.92" gradientUnits="userSpaceOnUse">
      <stop offset="0" stop-color="#ff0"/>
      <stop offset="0.22" stop-color="#f7ff08"/>
      <stop offset="0.88" stop-color="aqua"/>
    </linearGradient>
    <linearGradient id="linear-gradient-2" x1="24.83" y1="52.92" x2="42.12" y2="52.92" xlink:href="#linear-gradient"/>
    <linearGradient id="linear-gradient-3" x1="49.67" y1="52.92" x2="66.95" y2="52.92" xlink:href="#linear-gradient"/>
    <linearGradient id="linear-gradient-4" x1="0" y1="13.79" x2="66.95" y2="13.79" xlink:href="#linear-gradient"/>
  </defs>
  <title>REXExchange Web Logo</title>
  <path class="cls-1" d="M420.48,282.11l23-30.61H441.3l-22.06,29.33L397.36,251.5H352.5v11.82a10.31,10.31,0,0,0-4-8.14c-3.07-2.63-7.51-3.68-14.13-3.68H307.5v63.24h0V285.5h26.58c3.66,0,6.59-.11,8.77.63a10.81,10.81,0,0,1,5.05,2.95,10.46,10.46,0,0,1,2.34,5,36.86,36.86,0,0,1,.58,6.89c0,1,0,2.12,0,3.38s0.09,2.51.18,3.75,0.22,2.53.4,3.63,0.41,2.74.71,2.74H396l23.22-31.1,23.12,31.1h2.21ZM333.9,283.5H307.5v-30h27.29c6,0,10.36.87,13,3.39s4,5.82,4.08,10.31a15.13,15.13,0,0,1-1.51,7,14.3,14.3,0,0,1-4,4.87,16.85,16.85,0,0,1-5.71,3.18A26,26,0,0,1,333.9,283.5Zm18.65,25c-0.12-1.3,0-2.61-.07-3.94s0-2.44,0-3.32a47.18,47.18,0,0,0-.39-6.82,14,14,0,0,0-1.75-5.23c-0.88-1.48-3.95-2.67-5.6-3.59s-6.26-1.55-8.26-1.9v-0.18c4-1,9.23-2.91,11.59-5.72,1.51-1.79,4.41-3.87,4.41-6.25v39.88A28.44,28.44,0,0,0,352.55,308.47Zm42.58,6H352.5v-31h42v-2h-42v-28h43.82L418,283.07Z" transform="translate(-215.65 -240.42)"/>
  <g>
    <path class="cls-2" d="M452.35,251.67h41.41v3.28H456.15v24.68h35.37v3.28H456.15V310h38v3.28H452.35v-61.6Z" transform="translate(-215.65 -240.42)"/>
    <path class="cls-2" d="M512.14,290l-16.22-21.05h4.57l13.89,18.55,14-18.55h4.23l-16,21.05,17.51,23.3h-4.49l-15.19-20.79-15.53,20.79h-4.14Z" transform="translate(-215.65 -240.42)"/>
    <path class="cls-2" d="M570.72,282.64a12.83,12.83,0,0,0-1.51-5.18,11.55,11.55,0,0,0-3.24-3.71,14.7,14.7,0,0,0-4.62-2.24,19.87,19.87,0,0,0-5.65-.78,15.5,15.5,0,0,0-7.33,1.68,16.17,16.17,0,0,0-5.35,4.49,20.34,20.34,0,0,0-3.28,6.38,24.53,24.53,0,0,0-1.12,7.38,31.4,31.4,0,0,0,1,8.28,18.8,18.8,0,0,0,3.19,6.6,14.85,14.85,0,0,0,5.35,4.36,17,17,0,0,0,7.51,1.55,15.54,15.54,0,0,0,5.74-1,15.37,15.37,0,0,0,4.66-2.85,14.74,14.74,0,0,0,3.32-4.36,17.69,17.69,0,0,0,1.73-5.56h3.28a20.81,20.81,0,0,1-2.16,7.07,17.36,17.36,0,0,1-4.14,5.22,18,18,0,0,1-5.69,3.24,22.08,22.08,0,0,1-16-.82,17.73,17.73,0,0,1-6.3-5.22,22.15,22.15,0,0,1-3.62-7.55,33.79,33.79,0,0,1-1.16-8.93,28.44,28.44,0,0,1,1.34-8.8,21.5,21.5,0,0,1,3.93-7.25A18.63,18.63,0,0,1,547,269.7a20,20,0,0,1,8.71-1.81,24.41,24.41,0,0,1,6.77.91,17.54,17.54,0,0,1,5.61,2.72,14.19,14.19,0,0,1,4,4.62,16.46,16.46,0,0,1,1.9,6.51h-3.28Z" transform="translate(-215.65 -240.42)"/>
    <path class="cls-2" d="M585.39,251.67v26.75h0.17A14.18,14.18,0,0,1,588,274a16.33,16.33,0,0,1,8.33-5.39,19.07,19.07,0,0,1,5.09-.69,20.15,20.15,0,0,1,6.6.95,13,13,0,0,1,4.44,2.5,12.1,12.1,0,0,1,2.72,3.49,16.27,16.27,0,0,1,1.42,3.93,23.21,23.21,0,0,1,.52,3.84q0.08,1.86.09,3.24v27.44H614v-28q0-1.64-.26-4.14a12.62,12.62,0,0,0-1.51-4.79,11,11,0,0,0-3.8-3.93,12.92,12.92,0,0,0-7-1.64,15.64,15.64,0,0,0-6.73,1.38,14.57,14.57,0,0,0-5,3.84,16.92,16.92,0,0,0-3.15,5.87,24.62,24.62,0,0,0-1.08,7.46v24h-3.28v-61.6h3.28Z" transform="translate(-215.65 -240.42)"/>
    <path class="cls-2" d="M656.31,304.47h-0.17a13.64,13.64,0,0,1-2.24,3.75,15.88,15.88,0,0,1-3.58,3.15,17.75,17.75,0,0,1-4.79,2.16,21,21,0,0,1-5.87.78q-7.08,0-11-3.06t-3.88-9.45a11.09,11.09,0,0,1,5.48-10.22,16.83,16.83,0,0,1,5.26-2,51.63,51.63,0,0,1,5.56-.86l5.09-.43a29.92,29.92,0,0,0,5.57-.82,7.1,7.1,0,0,0,3.06-1.55,4.42,4.42,0,0,0,1.29-2.55,24.18,24.18,0,0,0,.26-3.88,8.21,8.21,0,0,0-.69-3.36,7.56,7.56,0,0,0-2.16-2.76,10.7,10.7,0,0,0-3.8-1.9,20.29,20.29,0,0,0-5.7-.69,14.94,14.94,0,0,0-9.62,2.93q-3.67,2.93-4,8.89h-3.28q0.34-7.33,4.7-11t12.38-3.67q8,0,11.69,3.15a10.34,10.34,0,0,1,3.67,8.24v25.8q0,1,0,1.9a6.32,6.32,0,0,0,.3,1.73,2.59,2.59,0,0,0,.86,1.25,2.74,2.74,0,0,0,1.73.47,15.71,15.71,0,0,0,2.42-.26v2.76a10.32,10.32,0,0,1-2.67.34,7.89,7.89,0,0,1-3.15-.52,4.14,4.14,0,0,1-1.77-1.38,5.09,5.09,0,0,1-.82-2,13.93,13.93,0,0,1-.22-2.54v-2.33Zm0-16.39a6.22,6.22,0,0,1-3.67,2,45.78,45.78,0,0,1-5.48.78l-5.52.52q-2.42.26-4.83,0.73a14.09,14.09,0,0,0-4.36,1.6,8.94,8.94,0,0,0-3.15,3.06,9.43,9.43,0,0,0-1.21,5q0,4.92,3.11,7.29t8.54,2.37q5.61,0,8.89-2a15.71,15.71,0,0,0,5-4.66,14.33,14.33,0,0,0,2.2-5.09,21.83,21.83,0,0,0,.47-3.32v-8.28Z" transform="translate(-215.65 -240.42)"/>
    <path class="cls-2" d="M670,268.92h3.28v9.49h0.17a14.18,14.18,0,0,1,2.46-4.44,16.33,16.33,0,0,1,8.33-5.39,19.07,19.07,0,0,1,5.09-.69,20.15,20.15,0,0,1,6.6.95,13,13,0,0,1,4.44,2.5,12.1,12.1,0,0,1,2.72,3.49,16.27,16.27,0,0,1,1.42,3.93,23.21,23.21,0,0,1,.52,3.84q0.08,1.86.09,3.24v27.44h-3.28v-28q0-1.64-.26-4.14a12.62,12.62,0,0,0-1.51-4.79,11,11,0,0,0-3.8-3.93,12.92,12.92,0,0,0-7-1.64,15.64,15.64,0,0,0-6.73,1.38,14.57,14.57,0,0,0-5,3.84,16.92,16.92,0,0,0-3.15,5.87,24.62,24.62,0,0,0-1.08,7.46v24H670V268.92Z" transform="translate(-215.65 -240.42)"/>
    <path class="cls-2" d="M751.39,268.92v42a30,30,0,0,1-.86,7.2,16,16,0,0,1-3,6.17,14.57,14.57,0,0,1-5.81,4.27,23.83,23.83,0,0,1-9.38,1.6,28.8,28.8,0,0,1-6.63-.73,16,16,0,0,1-5.42-2.33,11.86,11.86,0,0,1-3.75-4.23,15,15,0,0,1-1.59-6.51h3.28a11.88,11.88,0,0,0,1.47,5,10.52,10.52,0,0,0,3.15,3.41,13.32,13.32,0,0,0,4.36,1.94,21.34,21.34,0,0,0,5.18.6A18.62,18.62,0,0,0,740,326a13.22,13.22,0,0,0,4.88-3.58,12.92,12.92,0,0,0,2.54-5,22.29,22.29,0,0,0,.73-5.65V301.54H748a16.58,16.58,0,0,1-16,10.09,19.83,19.83,0,0,1-8.5-1.68,16.41,16.41,0,0,1-6-4.66,20.06,20.06,0,0,1-3.54-6.95,30.53,30.53,0,0,1-1.16-8.63,27.65,27.65,0,0,1,1.25-8.37,20.81,20.81,0,0,1,3.67-6.95,17.7,17.7,0,0,1,6-4.75,19.44,19.44,0,0,1,17.95.91,14.86,14.86,0,0,1,6.34,7.59h0.17v-9.23h3.19ZM732,270.74a14.36,14.36,0,0,0-7,1.64,14.84,14.84,0,0,0-4.92,4.31,19.55,19.55,0,0,0-2.93,6.08,24.71,24.71,0,0,0-1,6.95,26.85,26.85,0,0,0,1,7.38,17.47,17.47,0,0,0,3,6.08,14.72,14.72,0,0,0,5,4.1,15,15,0,0,0,6.86,1.51,15.27,15.27,0,0,0,7.08-1.55,14.67,14.67,0,0,0,5-4.23,18.57,18.57,0,0,0,3-6.08,26.5,26.5,0,0,0,0-14.37,18.05,18.05,0,0,0-3-6.08,14.89,14.89,0,0,0-5-4.18A15.28,15.28,0,0,0,732,270.74Z" transform="translate(-215.65 -240.42)"/>
    <path class="cls-2" d="M762.35,291.53V292a26.17,26.17,0,0,0,1,7.42,18.94,18.94,0,0,0,3.07,6.21,14.57,14.57,0,0,0,5.1,4.23,15.6,15.6,0,0,0,7.14,1.55q6.66,0,10.55-3.5a18.29,18.29,0,0,0,5.36-9.71h3.28q-1.47,7.77-6.34,11.91t-12.9,4.14a19.56,19.56,0,0,1-8.58-1.77,17.45,17.45,0,0,1-6.13-4.83,20.48,20.48,0,0,1-3.67-7.25,32.36,32.36,0,0,1-1.21-9,31.61,31.61,0,0,1,1.25-8.93,22.42,22.42,0,0,1,3.75-7.51,18.59,18.59,0,0,1,6.25-5.18,19,19,0,0,1,8.84-1.94,18.76,18.76,0,0,1,8.24,1.73,17.28,17.28,0,0,1,6,4.7,21,21,0,0,1,3.67,6.9,27.59,27.59,0,0,1,1.25,8.41q0,0.43,0,1c0,0.38,0,.68,0,0.91H762.35ZM795,288.68a26.52,26.52,0,0,0-1.21-6.86,17,17,0,0,0-3.07-5.69,15.3,15.3,0,0,0-4.93-3.93,14.47,14.47,0,0,0-6.62-1.47,15.52,15.52,0,0,0-7,1.51,15.82,15.82,0,0,0-5.1,4,17.66,17.66,0,0,0-3.2,5.74,26.86,26.86,0,0,0-1.38,6.73H795Z" transform="translate(-215.65 -240.42)"/>
  </g>
  <g>
    <g>
      <polygon class="cls-3" points="17.29 35.95 17.29 78.24 0 69.89 0 27.6 17.29 35.95"/>
      <polygon class="cls-4" points="42.12 69.89 42.12 27.6 24.83 35.95 24.83 78.24 42.12 69.89"/>
      <polygon class="cls-5" points="66.95 35.95 66.95 78.24 49.67 69.89 49.67 27.6 66.95 35.95"/>
    </g>
    <polyline class="cls-6" points="33.48 0 66.95 27.58 0 27.58 33.48 0"/>
  </g>
</svg>
